<?xml version="1.0" encoding="utf-8" standalone="no"?>
<!DOCTYPE svg PUBLIC "-//W3C//DTD SVG 1.1//EN"
  "http://www.w3.org/Graphics/SVG/1.1/DTD/svg11.dtd">
<!-- Created with matplotlib (http://matplotlib.org/) -->
<svg height="288pt" version="1.1" viewBox="0 0 432 288" width="432pt" xmlns="http://www.w3.org/2000/svg" xmlns:xlink="http://www.w3.org/1999/xlink">
 <defs>
  <style type="text/css">
*{stroke-linecap:butt;stroke-linejoin:round;}
  </style>
 </defs>
 <g id="figure_1">
  <g id="patch_1">
   <path d="M 0 288 
L 432 288 
L 432 0 
L 0 0 
z
" style="fill:#ffffff;"/>
  </g>
  <g id="axes_1">
   <g id="patch_2">
    <path d="M 22.624646 275.905354 
L 428.040354 275.905354 
L 428.040354 2.834646 
L 22.624646 2.834646 
z
" style="fill:#ebebeb;"/>
   </g>
   <g id="matplotlib.axis_1">
    <g id="xtick_1">
     <g id="line2d_1">
      <path clip-path="url(#p240e491731)" d="M 22.624646 275.905354 
L 22.624646 2.834646 
" style="fill:none;stroke:#ffffff;stroke-linecap:square;stroke-width:0.5;"/>
     </g>
     <g id="line2d_2">
      <defs>
       <path d="M 0 0 
L 0 -3.5 
" id="mf64708260b" style="stroke:#ffffff;stroke-width:0.8;"/>
      </defs>
      <g>
       <use style="fill:#ffffff;stroke:#ffffff;stroke-width:0.8;" x="22.624646" xlink:href="#mf64708260b" y="275.905354"/>
      </g>
     </g>
     <g id="text_1">
      <!-- -2 -->
      <defs>
       <path d="M 4.890625 31.390625 
L 31.203125 31.390625 
L 31.203125 23.390625 
L 4.890625 23.390625 
z
" id="DejaVuSans-2d"/>
       <path d="M 19.1875 8.296875 
L 53.609375 8.296875 
L 53.609375 0 
L 7.328125 0 
L 7.328125 8.296875 
Q 12.9375 14.109375 22.625 23.890625 
Q 32.328125 33.6875 34.8125 36.53125 
Q 39.546875 41.84375 41.421875 45.53125 
Q 43.3125 49.21875 43.3125 52.78125 
Q 43.3125 58.59375 39.234375 62.25 
Q 35.15625 65.921875 28.609375 65.921875 
Q 23.96875 65.921875 18.8125 64.3125 
Q 13.671875 62.703125 7.8125 59.421875 
L 7.8125 69.390625 
Q 13.765625 71.78125 18.9375 73 
Q 24.125 74.21875 28.421875 74.21875 
Q 39.75 74.21875 46.484375 68.546875 
Q 53.21875 62.890625 53.21875 53.421875 
Q 53.21875 48.921875 51.53125 44.890625 
Q 49.859375 40.875 45.40625 35.40625 
Q 44.1875 33.984375 37.640625 27.21875 
Q 31.109375 20.453125 19.1875 8.296875 
z
" id="DejaVuSans-32"/>
      </defs>
      <g style="fill:#808080;" transform="translate(18.636521 285.484104)scale(0.08 -0.08)">
       <use xlink:href="#DejaVuSans-2d"/>
       <use x="36.083984" xlink:href="#DejaVuSans-32"/>
      </g>
     </g>
    </g>
    <g id="xtick_2">
     <g id="line2d_3">
      <path clip-path="url(#p240e491731)" d="M 123.978573 275.905354 
L 123.978573 2.834646 
" style="fill:none;stroke:#ffffff;stroke-linecap:square;stroke-width:0.5;"/>
     </g>
     <g id="line2d_4">
      <g>
       <use style="fill:#ffffff;stroke:#ffffff;stroke-width:0.8;" x="123.978573" xlink:href="#mf64708260b" y="275.905354"/>
      </g>
     </g>
     <g id="text_2">
      <!-- -1 -->
      <defs>
       <path d="M 12.40625 8.296875 
L 28.515625 8.296875 
L 28.515625 63.921875 
L 10.984375 60.40625 
L 10.984375 69.390625 
L 28.421875 72.90625 
L 38.28125 72.90625 
L 38.28125 8.296875 
L 54.390625 8.296875 
L 54.390625 0 
L 12.40625 0 
z
" id="DejaVuSans-31"/>
      </defs>
      <g style="fill:#808080;" transform="translate(119.990448 285.484104)scale(0.08 -0.08)">
       <use xlink:href="#DejaVuSans-2d"/>
       <use x="36.083984" xlink:href="#DejaVuSans-31"/>
      </g>
     </g>
    </g>
    <g id="xtick_3">
     <g id="line2d_5">
      <path clip-path="url(#p240e491731)" d="M 225.3325 275.905354 
L 225.3325 2.834646 
" style="fill:none;stroke:#ffffff;stroke-linecap:square;stroke-width:0.5;"/>
     </g>
     <g id="line2d_6">
      <g>
       <use style="fill:#ffffff;stroke:#ffffff;stroke-width:0.8;" x="225.3325" xlink:href="#mf64708260b" y="275.905354"/>
      </g>
     </g>
     <g id="text_3">
      <!-- 0 -->
      <defs>
       <path d="M 31.78125 66.40625 
Q 24.171875 66.40625 20.328125 58.90625 
Q 16.5 51.421875 16.5 36.375 
Q 16.5 21.390625 20.328125 13.890625 
Q 24.171875 6.390625 31.78125 6.390625 
Q 39.453125 6.390625 43.28125 13.890625 
Q 47.125 21.390625 47.125 36.375 
Q 47.125 51.421875 43.28125 58.90625 
Q 39.453125 66.40625 31.78125 66.40625 
z
M 31.78125 74.21875 
Q 44.046875 74.21875 50.515625 64.515625 
Q 56.984375 54.828125 56.984375 36.375 
Q 56.984375 17.96875 50.515625 8.265625 
Q 44.046875 -1.421875 31.78125 -1.421875 
Q 19.53125 -1.421875 13.0625 8.265625 
Q 6.59375 17.96875 6.59375 36.375 
Q 6.59375 54.828125 13.0625 64.515625 
Q 19.53125 74.21875 31.78125 74.21875 
z
" id="DejaVuSans-30"/>
      </defs>
      <g style="fill:#808080;" transform="translate(222.7875 285.484104)scale(0.08 -0.08)">
       <use xlink:href="#DejaVuSans-30"/>
      </g>
     </g>
    </g>
    <g id="xtick_4">
     <g id="line2d_7">
      <path clip-path="url(#p240e491731)" d="M 326.686427 275.905354 
L 326.686427 2.834646 
" style="fill:none;stroke:#ffffff;stroke-linecap:square;stroke-width:0.5;"/>
     </g>
     <g id="line2d_8">
      <g>
       <use style="fill:#ffffff;stroke:#ffffff;stroke-width:0.8;" x="326.686427" xlink:href="#mf64708260b" y="275.905354"/>
      </g>
     </g>
     <g id="text_4">
      <!-- 1 -->
      <g style="fill:#808080;" transform="translate(324.141427 285.484104)scale(0.08 -0.08)">
       <use xlink:href="#DejaVuSans-31"/>
      </g>
     </g>
    </g>
    <g id="xtick_5">
     <g id="line2d_9">
      <path clip-path="url(#p240e491731)" d="M 428.040354 275.905354 
L 428.040354 2.834646 
" style="fill:none;stroke:#ffffff;stroke-linecap:square;stroke-width:0.5;"/>
     </g>
     <g id="line2d_10">
      <g>
       <use style="fill:#ffffff;stroke:#ffffff;stroke-width:0.8;" x="428.040354" xlink:href="#mf64708260b" y="275.905354"/>
      </g>
     </g>
     <g id="text_5">
      <!-- 2 -->
      <g style="fill:#808080;" transform="translate(425.495354 285.484104)scale(0.08 -0.08)">
       <use xlink:href="#DejaVuSans-32"/>
      </g>
     </g>
    </g>
   </g>
   <g id="matplotlib.axis_2">
    <g id="ytick_1">
     <g id="line2d_11">
      <path clip-path="url(#p240e491731)" d="M 22.624646 236.905527 
L 428.040354 236.905527 
" style="fill:none;stroke:#ffffff;stroke-linecap:square;stroke-width:0.5;"/>
     </g>
     <g id="line2d_12">
      <defs>
       <path d="M 0 0 
L 3.5 0 
" id="mb4a2d51bf6" style="stroke:#ffffff;stroke-width:0.8;"/>
      </defs>
      <g>
       <use style="fill:#ffffff;stroke:#ffffff;stroke-width:0.8;" x="22.624646" xlink:href="#mb4a2d51bf6" y="236.905527"/>
      </g>
     </g>
     <g id="text_6">
      <!-- 0.10 -->
      <defs>
       <path d="M 10.6875 12.40625 
L 21 12.40625 
L 21 0 
L 10.6875 0 
z
" id="DejaVuSans-2e"/>
      </defs>
      <g style="fill:#808080;" transform="translate(1.312146 239.944902)scale(0.08 -0.08)">
       <use xlink:href="#DejaVuSans-30"/>
       <use x="63.623047" xlink:href="#DejaVuSans-2e"/>
       <use x="95.410156" xlink:href="#DejaVuSans-31"/>
       <use x="159.033203" xlink:href="#DejaVuSans-30"/>
      </g>
     </g>
    </g>
    <g id="ytick_2">
     <g id="line2d_13">
      <path clip-path="url(#p240e491731)" d="M 22.624646 197.836032 
L 428.040354 197.836032 
" style="fill:none;stroke:#ffffff;stroke-linecap:square;stroke-width:0.5;"/>
     </g>
     <g id="line2d_14">
      <g>
       <use style="fill:#ffffff;stroke:#ffffff;stroke-width:0.8;" x="22.624646" xlink:href="#mb4a2d51bf6" y="197.836032"/>
      </g>
     </g>
     <g id="text_7">
      <!-- 0.15 -->
      <defs>
       <path d="M 10.796875 72.90625 
L 49.515625 72.90625 
L 49.515625 64.59375 
L 19.828125 64.59375 
L 19.828125 46.734375 
Q 21.96875 47.46875 24.109375 47.828125 
Q 26.265625 48.1875 28.421875 48.1875 
Q 40.625 48.1875 47.75 41.5 
Q 54.890625 34.8125 54.890625 23.390625 
Q 54.890625 11.625 47.5625 5.09375 
Q 40.234375 -1.421875 26.90625 -1.421875 
Q 22.3125 -1.421875 17.546875 -0.640625 
Q 12.796875 0.140625 7.71875 1.703125 
L 7.71875 11.625 
Q 12.109375 9.234375 16.796875 8.0625 
Q 21.484375 6.890625 26.703125 6.890625 
Q 35.15625 6.890625 40.078125 11.328125 
Q 45.015625 15.765625 45.015625 23.390625 
Q 45.015625 31 40.078125 35.4375 
Q 35.15625 39.890625 26.703125 39.890625 
Q 22.75 39.890625 18.8125 39.015625 
Q 14.890625 38.140625 10.796875 36.28125 
z
" id="DejaVuSans-35"/>
      </defs>
      <g style="fill:#808080;" transform="translate(1.312146 200.875407)scale(0.08 -0.08)">
       <use xlink:href="#DejaVuSans-30"/>
       <use x="63.623047" xlink:href="#DejaVuSans-2e"/>
       <use x="95.410156" xlink:href="#DejaVuSans-31"/>
       <use x="159.033203" xlink:href="#DejaVuSans-35"/>
      </g>
     </g>
    </g>
    <g id="ytick_3">
     <g id="line2d_15">
      <path clip-path="url(#p240e491731)" d="M 22.624646 158.766537 
L 428.040354 158.766537 
" style="fill:none;stroke:#ffffff;stroke-linecap:square;stroke-width:0.5;"/>
     </g>
     <g id="line2d_16">
      <g>
       <use style="fill:#ffffff;stroke:#ffffff;stroke-width:0.8;" x="22.624646" xlink:href="#mb4a2d51bf6" y="158.766537"/>
      </g>
     </g>
     <g id="text_8">
      <!-- 0.20 -->
      <g style="fill:#808080;" transform="translate(1.312146 161.805912)scale(0.08 -0.08)">
       <use xlink:href="#DejaVuSans-30"/>
       <use x="63.623047" xlink:href="#DejaVuSans-2e"/>
       <use x="95.410156" xlink:href="#DejaVuSans-32"/>
       <use x="159.033203" xlink:href="#DejaVuSans-30"/>
      </g>
     </g>
    </g>
    <g id="ytick_4">
     <g id="line2d_17">
      <path clip-path="url(#p240e491731)" d="M 22.624646 119.697043 
L 428.040354 119.697043 
" style="fill:none;stroke:#ffffff;stroke-linecap:square;stroke-width:0.5;"/>
     </g>
     <g id="line2d_18">
      <g>
       <use style="fill:#ffffff;stroke:#ffffff;stroke-width:0.8;" x="22.624646" xlink:href="#mb4a2d51bf6" y="119.697043"/>
      </g>
     </g>
     <g id="text_9">
      <!-- 0.25 -->
      <g style="fill:#808080;" transform="translate(1.312146 122.736418)scale(0.08 -0.08)">
       <use xlink:href="#DejaVuSans-30"/>
       <use x="63.623047" xlink:href="#DejaVuSans-2e"/>
       <use x="95.410156" xlink:href="#DejaVuSans-32"/>
       <use x="159.033203" xlink:href="#DejaVuSans-35"/>
      </g>
     </g>
    </g>
    <g id="ytick_5">
     <g id="line2d_19">
      <path clip-path="url(#p240e491731)" d="M 22.624646 80.627548 
L 428.040354 80.627548 
" style="fill:none;stroke:#ffffff;stroke-linecap:square;stroke-width:0.5;"/>
     </g>
     <g id="line2d_20">
      <g>
       <use style="fill:#ffffff;stroke:#ffffff;stroke-width:0.8;" x="22.624646" xlink:href="#mb4a2d51bf6" y="80.627548"/>
      </g>
     </g>
     <g id="text_10">
      <!-- 0.30 -->
      <defs>
       <path d="M 40.578125 39.3125 
Q 47.65625 37.796875 51.625 33 
Q 55.609375 28.21875 55.609375 21.1875 
Q 55.609375 10.40625 48.1875 4.484375 
Q 40.765625 -1.421875 27.09375 -1.421875 
Q 22.515625 -1.421875 17.65625 -0.515625 
Q 12.796875 0.390625 7.625 2.203125 
L 7.625 11.71875 
Q 11.71875 9.328125 16.59375 8.109375 
Q 21.484375 6.890625 26.8125 6.890625 
Q 36.078125 6.890625 40.9375 10.546875 
Q 45.796875 14.203125 45.796875 21.1875 
Q 45.796875 27.640625 41.28125 31.265625 
Q 36.765625 34.90625 28.71875 34.90625 
L 20.21875 34.90625 
L 20.21875 43.015625 
L 29.109375 43.015625 
Q 36.375 43.015625 40.234375 45.921875 
Q 44.09375 48.828125 44.09375 54.296875 
Q 44.09375 59.90625 40.109375 62.90625 
Q 36.140625 65.921875 28.71875 65.921875 
Q 24.65625 65.921875 20.015625 65.03125 
Q 15.375 64.15625 9.8125 62.3125 
L 9.8125 71.09375 
Q 15.4375 72.65625 20.34375 73.4375 
Q 25.25 74.21875 29.59375 74.21875 
Q 40.828125 74.21875 47.359375 69.109375 
Q 53.90625 64.015625 53.90625 55.328125 
Q 53.90625 49.265625 50.4375 45.09375 
Q 46.96875 40.921875 40.578125 39.3125 
z
" id="DejaVuSans-33"/>
      </defs>
      <g style="fill:#808080;" transform="translate(1.312146 83.666923)scale(0.08 -0.08)">
       <use xlink:href="#DejaVuSans-30"/>
       <use x="63.623047" xlink:href="#DejaVuSans-2e"/>
       <use x="95.410156" xlink:href="#DejaVuSans-33"/>
       <use x="159.033203" xlink:href="#DejaVuSans-30"/>
      </g>
     </g>
    </g>
    <g id="ytick_6">
     <g id="line2d_21">
      <path clip-path="url(#p240e491731)" d="M 22.624646 41.558053 
L 428.040354 41.558053 
" style="fill:none;stroke:#ffffff;stroke-linecap:square;stroke-width:0.5;"/>
     </g>
     <g id="line2d_22">
      <g>
       <use style="fill:#ffffff;stroke:#ffffff;stroke-width:0.8;" x="22.624646" xlink:href="#mb4a2d51bf6" y="41.558053"/>
      </g>
     </g>
     <g id="text_11">
      <!-- 0.35 -->
      <g style="fill:#808080;" transform="translate(1.312146 44.597428)scale(0.08 -0.08)">
       <use xlink:href="#DejaVuSans-30"/>
       <use x="63.623047" xlink:href="#DejaVuSans-2e"/>
       <use x="95.410156" xlink:href="#DejaVuSans-33"/>
       <use x="159.033203" xlink:href="#DejaVuSans-35"/>
      </g>
     </g>
    </g>
   </g>
   <g id="line2d_23">
    <path clip-path="url(#p240e491731)" d="M 22.624646 269.582538 
L 26.719754 265.253869 
L 30.814862 261.074124 
L 34.90997 256.860713 
L 39.005078 252.451054 
L 43.100187 247.801912 
L 47.195295 243.436589 
L 51.290403 239.10809 
L 55.385511 234.496454 
L 59.480619 229.242845 
L 63.575727 223.797235 
L 67.670836 218.754158 
L 71.765944 213.48577 
L 75.861052 208.274139 
L 79.95616 203.140366 
L 84.051268 197.628832 
L 88.146376 191.371798 
L 92.241485 185.049699 
L 96.336593 178.146733 
L 100.431701 170.996274 
L 104.526809 163.725129 
L 108.621917 156.222691 
L 112.717025 148.452757 
L 116.812134 140.868612 
L 120.907242 133.076622 
L 125.00235 125.370811 
L 129.097458 117.905085 
L 133.192566 109.360807 
L 137.287674 100.519013 
L 141.382783 92.24921 
L 145.477891 83.962597 
L 149.572999 75.743954 
L 153.668107 68.056582 
L 157.763215 60.446294 
L 161.858323 53.441171 
L 165.953432 47.567894 
L 170.04854 42.151001 
L 174.143648 37.393372 
L 178.238756 32.715632 
L 182.333864 28.474915 
L 186.428972 24.628189 
L 190.524081 21.28919 
L 194.619189 18.626199 
L 198.714297 16.419801 
L 202.809405 14.285643 
L 206.904513 11.793859 
L 210.999621 9.463729 
L 215.09473 7.985661 
L 219.189838 7.792711 
L 223.284946 7.939317 
L 227.380054 9.045227 
L 231.475162 9.468192 
L 235.57027 10.120437 
L 239.665379 11.657448 
L 243.760487 14.085851 
L 247.855595 16.783412 
L 251.950703 20.072231 
L 256.045811 23.773558 
L 260.140919 27.330643 
L 264.236028 30.430093 
L 268.331136 34.205185 
L 272.426244 39.010893 
L 276.521352 43.777362 
L 280.61646 48.514374 
L 284.711568 53.209082 
L 288.806677 58.504258 
L 292.901785 64.841867 
L 296.996893 71.862312 
L 301.092001 79.66234 
L 305.187109 87.252971 
L 309.282217 94.888738 
L 313.377326 102.181733 
L 317.472434 109.755619 
L 321.567542 116.969166 
L 325.66265 124.285662 
L 329.757758 132.093281 
L 333.852866 139.260073 
L 337.947975 145.678102 
L 342.043083 152.286535 
L 346.138191 159.106155 
L 350.233299 165.720027 
L 354.328407 172.125107 
L 358.423515 178.562908 
L 362.518624 185.357543 
L 366.613732 191.967013 
L 370.70884 198.469999 
L 374.803948 204.886602 
L 378.899056 211.232357 
L 382.994164 217.79963 
L 387.089273 224.092803 
L 391.184381 230.223963 
L 395.279489 236.261855 
L 399.374597 241.955491 
L 403.469705 247.792665 
L 407.564813 253.005877 
L 411.659922 257.729893 
L 415.75503 262.778792 
L 419.850138 267.67876 
L 423.945246 272.069312 
L 428.040354 275.905354 
" style="fill:none;stroke:#009afa;stroke-linecap:round;"/>
   </g>
   <g id="line2d_24">
    <path clip-path="url(#p240e491731)" d="M 22.624646 270.385545 
L 26.719754 266.704614 
L 30.814862 262.90109 
L 34.90997 258.929854 
L 39.005078 254.814826 
L 43.100187 250.485639 
L 47.195295 246.000049 
L 51.290403 241.370711 
L 55.385511 236.502722 
L 59.480619 231.516122 
L 63.575727 226.378756 
L 67.670836 220.950292 
L 71.765944 215.196547 
L 75.861052 209.295317 
L 79.95616 203.136198 
L 84.051268 196.842641 
L 88.146376 190.256533 
L 92.241485 183.27271 
L 96.336593 176.069082 
L 100.431701 168.63941 
L 104.526809 161.111296 
L 108.621917 153.529339 
L 112.717025 145.918143 
L 116.812134 138.219474 
L 120.907242 130.437117 
L 125.00235 122.535067 
L 129.097458 114.831561 
L 133.192566 107.212253 
L 137.287674 99.63405 
L 141.382783 92.033487 
L 145.477891 84.288 
L 149.572999 76.596673 
L 153.668107 69.004814 
L 157.763215 61.759232 
L 161.858323 55.028078 
L 165.953432 48.717165 
L 170.04854 42.769076 
L 174.143648 37.277462 
L 178.238756 32.085136 
L 182.333864 27.295486 
L 186.428972 22.993923 
L 190.524081 19.298386 
L 194.619189 16.070064 
L 198.714297 13.095866 
L 202.809405 10.509886 
L 206.904513 8.532506 
L 210.999621 7.013574 
L 215.09473 5.90818 
L 219.189838 5.378416 
L 223.284946 5.220996 
L 227.380054 5.450253 
L 231.475162 6.289331 
L 235.57027 7.518566 
L 239.665379 9.220848 
L 243.760487 11.439593 
L 247.855595 14.053374 
L 251.950703 17.145509 
L 256.045811 20.59529 
L 260.140919 24.388408 
L 264.236028 28.535948 
L 268.331136 32.932227 
L 272.426244 37.526812 
L 276.521352 42.515236 
L 280.61646 48.035063 
L 284.711568 53.78577 
L 288.806677 59.662331 
L 292.901785 65.832176 
L 296.996893 72.323599 
L 301.092001 79.163333 
L 305.187109 86.213133 
L 309.282217 93.265796 
L 313.377326 100.331946 
L 317.472434 107.400028 
L 321.567542 114.469666 
L 325.66265 121.660699 
L 329.757758 128.83134 
L 333.852866 136.046664 
L 337.947975 143.379335 
L 342.043083 150.567634 
L 346.138191 157.780972 
L 350.233299 165.083807 
L 354.328407 172.469392 
L 358.423515 179.941428 
L 362.518624 187.227352 
L 366.613732 194.335711 
L 370.70884 201.151385 
L 374.803948 207.601873 
L 378.899056 214.009331 
L 382.994164 220.305584 
L 387.089273 226.313273 
L 391.184381 232.120894 
L 395.279489 237.672114 
L 399.374597 242.923669 
L 403.469705 247.911245 
L 407.564813 252.81262 
L 411.659922 257.674986 
L 415.75503 262.312646 
L 419.850138 266.703906 
L 423.945246 270.837021 
L 428.040354 274.743664 
" style="fill:none;stroke:#e36f47;stroke-linecap:round;"/>
   </g>
   <g id="line2d_25">
    <path clip-path="url(#p240e491731)" d="M 22.624646 271.220451 
L 26.719754 267.819881 
L 30.814862 264.270773 
L 34.90997 260.530195 
L 39.005078 256.529537 
L 43.100187 252.229187 
L 47.195295 247.702647 
L 51.290403 242.952494 
L 55.385511 237.933109 
L 59.480619 232.752524 
L 63.575727 227.249761 
L 67.670836 221.458967 
L 71.765944 215.42754 
L 75.861052 209.197097 
L 79.95616 202.91733 
L 84.051268 196.488834 
L 88.146376 189.884499 
L 92.241485 183.08477 
L 96.336593 175.91841 
L 100.431701 168.521447 
L 104.526809 161.029 
L 108.621917 153.368978 
L 112.717025 145.658442 
L 116.812134 137.894315 
L 120.907242 130.05061 
L 125.00235 122.095792 
L 129.097458 114.105001 
L 133.192566 106.274338 
L 137.287674 98.614182 
L 141.382783 91.090926 
L 145.477891 83.704737 
L 149.572999 76.497321 
L 153.668107 69.501913 
L 157.763215 62.697444 
L 161.858323 56.15346 
L 165.953432 49.802413 
L 170.04854 43.797863 
L 174.143648 38.126136 
L 178.238756 32.700202 
L 182.333864 27.659938 
L 186.428972 23.025304 
L 190.524081 18.812674 
L 194.619189 15.046688 
L 198.714297 11.739699 
L 202.809405 9.027289 
L 206.904513 6.938145 
L 210.999621 5.334046 
L 215.09473 4.20805 
L 219.189838 3.623217 
L 223.284946 3.541312 
L 227.380054 4.006119 
L 231.475162 4.898064 
L 235.57027 6.158403 
L 239.665379 7.968127 
L 243.760487 10.243893 
L 247.855595 12.938348 
L 251.950703 16.054723 
L 256.045811 19.613258 
L 260.140919 23.595402 
L 264.236028 28.034109 
L 268.331136 32.753004 
L 272.426244 37.624991 
L 276.521352 42.799053 
L 280.61646 48.254333 
L 284.711568 53.890955 
L 288.806677 59.831073 
L 292.901785 65.989809 
L 296.996893 72.304891 
L 301.092001 78.784359 
L 305.187109 85.456745 
L 309.282217 92.315784 
L 313.377326 99.324748 
L 317.472434 106.479229 
L 321.567542 113.753063 
L 325.66265 121.160418 
L 329.757758 128.651198 
L 333.852866 136.166826 
L 337.947975 143.765043 
L 342.043083 151.332794 
L 346.138191 158.801861 
L 350.233299 166.232338 
L 354.328407 173.615469 
L 358.423515 180.843747 
L 362.518624 187.944649 
L 366.613732 194.798874 
L 370.70884 201.431493 
L 374.803948 207.985062 
L 378.899056 214.399091 
L 382.994164 220.703408 
L 387.089273 226.812492 
L 391.184381 232.668754 
L 395.279489 238.311971 
L 399.374597 243.750837 
L 403.469705 248.936465 
L 407.564813 254.007786 
L 411.659922 258.784474 
L 415.75503 263.236915 
L 419.850138 267.340658 
L 423.945246 271.100705 
L 428.040354 274.70573 
" style="fill:none;stroke:#3ea44e;stroke-linecap:round;"/>
   </g>
   <g id="line2d_26">
    <path clip-path="url(#p240e491731)" d="M 22.624646 272.095863 
L 26.719754 268.500059 
L 30.814862 264.709194 
L 34.90997 260.698904 
L 39.005078 256.634913 
L 43.100187 252.417418 
L 47.195295 247.971544 
L 51.290403 243.252017 
L 55.385511 238.315081 
L 59.480619 233.090506 
L 63.575727 227.6224 
L 67.670836 221.999172 
L 71.765944 216.187354 
L 75.861052 210.069424 
L 79.95616 203.621432 
L 84.051268 196.923274 
L 88.146376 190.034393 
L 92.241485 182.966658 
L 96.336593 175.709086 
L 100.431701 168.318644 
L 104.526809 160.787728 
L 108.621917 153.200893 
L 112.717025 145.539204 
L 116.812134 137.794251 
L 120.907242 130.053269 
L 125.00235 122.306535 
L 129.097458 114.567606 
L 133.192566 106.872275 
L 137.287674 99.176916 
L 141.382783 91.59459 
L 145.477891 84.106557 
L 149.572999 76.687807 
L 153.668107 69.488681 
L 157.763215 62.580936 
L 161.858323 55.926346 
L 165.953432 49.521734 
L 170.04854 43.401009 
L 174.143648 37.65149 
L 178.238756 32.302374 
L 182.333864 27.323645 
L 186.428972 22.729576 
L 190.524081 18.565028 
L 194.619189 14.856514 
L 198.714297 11.602724 
L 202.809405 8.84346 
L 206.904513 6.565908 
L 210.999621 4.800233 
L 215.09473 3.614631 
L 219.189838 2.971638 
L 223.284946 2.834646 
L 227.380054 3.188033 
L 231.475162 4.05657 
L 235.57027 5.474704 
L 239.665379 7.366612 
L 243.760487 9.731073 
L 247.855595 12.568603 
L 251.950703 15.818713 
L 256.045811 19.457923 
L 260.140919 23.43601 
L 264.236028 27.715708 
L 268.331136 32.306261 
L 272.426244 37.173481 
L 276.521352 42.339889 
L 280.61646 47.830751 
L 284.711568 53.553607 
L 288.806677 59.539672 
L 292.901785 65.815521 
L 296.996893 72.280889 
L 301.092001 78.947733 
L 305.187109 85.795649 
L 309.282217 92.791014 
L 313.377326 99.886899 
L 317.472434 107.055559 
L 321.567542 114.244632 
L 325.66265 121.547175 
L 329.757758 128.994138 
L 333.852866 136.432686 
L 337.947975 143.929827 
L 342.043083 151.437712 
L 346.138191 158.876192 
L 350.233299 166.238855 
L 354.328407 173.575036 
L 358.423515 180.805041 
L 362.518624 187.957901 
L 366.613732 194.939964 
L 370.70884 201.804549 
L 374.803948 208.490118 
L 378.899056 215.015591 
L 382.994164 221.273638 
L 387.089273 227.334655 
L 391.184381 233.164964 
L 395.279489 238.691827 
L 399.374597 244.034627 
L 403.469705 249.165805 
L 407.564813 254.047514 
L 411.659922 258.641021 
L 415.75503 263.047825 
L 419.850138 267.219113 
L 423.945246 271.277863 
L 428.040354 275.140802 
" style="fill:none;stroke:#c371d2;stroke-linecap:round;"/>
   </g>
   <g id="line2d_27">
    <path clip-path="url(#p240e491731)" d="M 24.604254 271.184274 
L 26.583862 269.463136 
L 44.888199 251.143639 
L 63.192535 228.336082 
L 74.192678 212.501277 
L 85.192821 195.194779 
L 94.493303 179.553367 
L 103.793784 163.154979 
L 123.999642 125.931733 
L 142.627657 91.590107 
L 152.613257 74.05627 
L 162.598857 57.657122 
L 174.168154 40.608046 
L 185.737451 26.217595 
L 196.018877 16.084004 
L 206.300303 8.762857 
L 215.316187 4.833577 
L 224.33207 3.330235 
L 234.161804 4.495631 
L 243.991538 8.553111 
L 253.879692 15.438009 
L 263.767847 24.942643 
L 274.700466 38.185094 
L 285.633085 53.879467 
L 296.035196 70.639867 
L 306.437307 88.721176 
L 328.068872 128.549797 
L 346.278041 162.087881 
L 357.393707 181.65557 
L 368.509374 200.110731 
L 378.958428 216.214048 
L 389.407481 230.959601 
L 406.147676 251.559001 
L 422.887871 268.401807 
L 425.464113 270.670715 
" style="fill:none;stroke:#ac8e18;stroke-linecap:round;"/>
   </g>
   <g id="legend_1">
    <g id="patch_3">
     <path d="M 366.332854 67.947146 
L 422.440354 67.947146 
Q 424.040354 67.947146 424.040354 66.347146 
L 424.040354 8.434646 
Q 424.040354 6.834646 422.440354 6.834646 
L 366.332854 6.834646 
Q 364.732854 6.834646 364.732854 8.434646 
L 364.732854 66.347146 
Q 364.732854 67.947146 366.332854 67.947146 
z
" style="fill:#ffffff;opacity:0.8;stroke:#ffffff;stroke-linejoin:miter;"/>
    </g>
    <g id="line2d_28">
     <path d="M 367.932854 13.313396 
L 383.932854 13.313396 
" style="fill:none;stroke:#009afa;stroke-linecap:square;"/>
    </g>
    <g id="line2d_29"/>
    <g id="text_12">
     <!-- Order 2 -->
     <defs>
      <path d="M 39.40625 66.21875 
Q 28.65625 66.21875 22.328125 58.203125 
Q 16.015625 50.203125 16.015625 36.375 
Q 16.015625 22.609375 22.328125 14.59375 
Q 28.65625 6.59375 39.40625 6.59375 
Q 50.140625 6.59375 56.421875 14.59375 
Q 62.703125 22.609375 62.703125 36.375 
Q 62.703125 50.203125 56.421875 58.203125 
Q 50.140625 66.21875 39.40625 66.21875 
z
M 39.40625 74.21875 
Q 54.734375 74.21875 63.90625 63.9375 
Q 73.09375 53.65625 73.09375 36.375 
Q 73.09375 19.140625 63.90625 8.859375 
Q 54.734375 -1.421875 39.40625 -1.421875 
Q 24.03125 -1.421875 14.8125 8.828125 
Q 5.609375 19.09375 5.609375 36.375 
Q 5.609375 53.65625 14.8125 63.9375 
Q 24.03125 74.21875 39.40625 74.21875 
z
" id="DejaVuSans-4f"/>
      <path d="M 41.109375 46.296875 
Q 39.59375 47.171875 37.8125 47.578125 
Q 36.03125 48 33.890625 48 
Q 26.265625 48 22.1875 43.046875 
Q 18.109375 38.09375 18.109375 28.8125 
L 18.109375 0 
L 9.078125 0 
L 9.078125 54.6875 
L 18.109375 54.6875 
L 18.109375 46.1875 
Q 20.953125 51.171875 25.484375 53.578125 
Q 30.03125 56 36.53125 56 
Q 37.453125 56 38.578125 55.875 
Q 39.703125 55.765625 41.0625 55.515625 
z
" id="DejaVuSans-72"/>
      <path d="M 45.40625 46.390625 
L 45.40625 75.984375 
L 54.390625 75.984375 
L 54.390625 0 
L 45.40625 0 
L 45.40625 8.203125 
Q 42.578125 3.328125 38.25 0.953125 
Q 33.9375 -1.421875 27.875 -1.421875 
Q 17.96875 -1.421875 11.734375 6.484375 
Q 5.515625 14.40625 5.515625 27.296875 
Q 5.515625 40.1875 11.734375 48.09375 
Q 17.96875 56 27.875 56 
Q 33.9375 56 38.25 53.625 
Q 42.578125 51.265625 45.40625 46.390625 
z
M 14.796875 27.296875 
Q 14.796875 17.390625 18.875 11.75 
Q 22.953125 6.109375 30.078125 6.109375 
Q 37.203125 6.109375 41.296875 11.75 
Q 45.40625 17.390625 45.40625 27.296875 
Q 45.40625 37.203125 41.296875 42.84375 
Q 37.203125 48.484375 30.078125 48.484375 
Q 22.953125 48.484375 18.875 42.84375 
Q 14.796875 37.203125 14.796875 27.296875 
z
" id="DejaVuSans-64"/>
      <path d="M 56.203125 29.59375 
L 56.203125 25.203125 
L 14.890625 25.203125 
Q 15.484375 15.921875 20.484375 11.0625 
Q 25.484375 6.203125 34.421875 6.203125 
Q 39.59375 6.203125 44.453125 7.46875 
Q 49.3125 8.734375 54.109375 11.28125 
L 54.109375 2.78125 
Q 49.265625 0.734375 44.1875 -0.34375 
Q 39.109375 -1.421875 33.890625 -1.421875 
Q 20.796875 -1.421875 13.15625 6.1875 
Q 5.515625 13.8125 5.515625 26.8125 
Q 5.515625 40.234375 12.765625 48.109375 
Q 20.015625 56 32.328125 56 
Q 43.359375 56 49.78125 48.890625 
Q 56.203125 41.796875 56.203125 29.59375 
z
M 47.21875 32.234375 
Q 47.125 39.59375 43.09375 43.984375 
Q 39.0625 48.390625 32.421875 48.390625 
Q 24.90625 48.390625 20.390625 44.140625 
Q 15.875 39.890625 15.1875 32.171875 
z
" id="DejaVuSans-65"/>
      <path id="DejaVuSans-20"/>
     </defs>
     <g transform="translate(390.332854 16.113396)scale(0.08 -0.08)">
      <use xlink:href="#DejaVuSans-4f"/>
      <use x="78.710938" xlink:href="#DejaVuSans-72"/>
      <use x="119.808594" xlink:href="#DejaVuSans-64"/>
      <use x="183.285156" xlink:href="#DejaVuSans-65"/>
      <use x="244.808594" xlink:href="#DejaVuSans-72"/>
      <use x="285.921875" xlink:href="#DejaVuSans-20"/>
      <use x="317.708984" xlink:href="#DejaVuSans-32"/>
     </g>
    </g>
    <g id="line2d_30">
     <path d="M 367.932854 25.055896 
L 383.932854 25.055896 
" style="fill:none;stroke:#e36f47;stroke-linecap:square;"/>
    </g>
    <g id="line2d_31"/>
    <g id="text_13">
     <!-- Order 4 -->
     <defs>
      <path d="M 37.796875 64.3125 
L 12.890625 25.390625 
L 37.796875 25.390625 
z
M 35.203125 72.90625 
L 47.609375 72.90625 
L 47.609375 25.390625 
L 58.015625 25.390625 
L 58.015625 17.1875 
L 47.609375 17.1875 
L 47.609375 0 
L 37.796875 0 
L 37.796875 17.1875 
L 4.890625 17.1875 
L 4.890625 26.703125 
z
" id="DejaVuSans-34"/>
     </defs>
     <g transform="translate(390.332854 27.855896)scale(0.08 -0.08)">
      <use xlink:href="#DejaVuSans-4f"/>
      <use x="78.710938" xlink:href="#DejaVuSans-72"/>
      <use x="119.808594" xlink:href="#DejaVuSans-64"/>
      <use x="183.285156" xlink:href="#DejaVuSans-65"/>
      <use x="244.808594" xlink:href="#DejaVuSans-72"/>
      <use x="285.921875" xlink:href="#DejaVuSans-20"/>
      <use x="317.708984" xlink:href="#DejaVuSans-34"/>
     </g>
    </g>
    <g id="line2d_32">
     <path d="M 367.932854 36.798396 
L 383.932854 36.798396 
" style="fill:none;stroke:#3ea44e;stroke-linecap:square;"/>
    </g>
    <g id="line2d_33"/>
    <g id="text_14">
     <!-- Order 6 -->
     <defs>
      <path d="M 33.015625 40.375 
Q 26.375 40.375 22.484375 35.828125 
Q 18.609375 31.296875 18.609375 23.390625 
Q 18.609375 15.53125 22.484375 10.953125 
Q 26.375 6.390625 33.015625 6.390625 
Q 39.65625 6.390625 43.53125 10.953125 
Q 47.40625 15.53125 47.40625 23.390625 
Q 47.40625 31.296875 43.53125 35.828125 
Q 39.65625 40.375 33.015625 40.375 
z
M 52.59375 71.296875 
L 52.59375 62.3125 
Q 48.875 64.0625 45.09375 64.984375 
Q 41.3125 65.921875 37.59375 65.921875 
Q 27.828125 65.921875 22.671875 59.328125 
Q 17.53125 52.734375 16.796875 39.40625 
Q 19.671875 43.65625 24.015625 45.921875 
Q 28.375 48.1875 33.59375 48.1875 
Q 44.578125 48.1875 50.953125 41.515625 
Q 57.328125 34.859375 57.328125 23.390625 
Q 57.328125 12.15625 50.6875 5.359375 
Q 44.046875 -1.421875 33.015625 -1.421875 
Q 20.359375 -1.421875 13.671875 8.265625 
Q 6.984375 17.96875 6.984375 36.375 
Q 6.984375 53.65625 15.1875 63.9375 
Q 23.390625 74.21875 37.203125 74.21875 
Q 40.921875 74.21875 44.703125 73.484375 
Q 48.484375 72.75 52.59375 71.296875 
z
" id="DejaVuSans-36"/>
     </defs>
     <g transform="translate(390.332854 39.598396)scale(0.08 -0.08)">
      <use xlink:href="#DejaVuSans-4f"/>
      <use x="78.710938" xlink:href="#DejaVuSans-72"/>
      <use x="119.808594" xlink:href="#DejaVuSans-64"/>
      <use x="183.285156" xlink:href="#DejaVuSans-65"/>
      <use x="244.808594" xlink:href="#DejaVuSans-72"/>
      <use x="285.921875" xlink:href="#DejaVuSans-20"/>
      <use x="317.708984" xlink:href="#DejaVuSans-36"/>
     </g>
    </g>
    <g id="line2d_34">
     <path d="M 367.932854 48.540896 
L 383.932854 48.540896 
" style="fill:none;stroke:#c371d2;stroke-linecap:square;"/>
    </g>
    <g id="line2d_35"/>
    <g id="text_15">
     <!-- Order 8 -->
     <defs>
      <path d="M 31.78125 34.625 
Q 24.75 34.625 20.71875 30.859375 
Q 16.703125 27.09375 16.703125 20.515625 
Q 16.703125 13.921875 20.71875 10.15625 
Q 24.75 6.390625 31.78125 6.390625 
Q 38.8125 6.390625 42.859375 10.171875 
Q 46.921875 13.96875 46.921875 20.515625 
Q 46.921875 27.09375 42.890625 30.859375 
Q 38.875 34.625 31.78125 34.625 
z
M 21.921875 38.8125 
Q 15.578125 40.375 12.03125 44.71875 
Q 8.5 49.078125 8.5 55.328125 
Q 8.5 64.0625 14.71875 69.140625 
Q 20.953125 74.21875 31.78125 74.21875 
Q 42.671875 74.21875 48.875 69.140625 
Q 55.078125 64.0625 55.078125 55.328125 
Q 55.078125 49.078125 51.53125 44.71875 
Q 48 40.375 41.703125 38.8125 
Q 48.828125 37.15625 52.796875 32.3125 
Q 56.78125 27.484375 56.78125 20.515625 
Q 56.78125 9.90625 50.3125 4.234375 
Q 43.84375 -1.421875 31.78125 -1.421875 
Q 19.734375 -1.421875 13.25 4.234375 
Q 6.78125 9.90625 6.78125 20.515625 
Q 6.78125 27.484375 10.78125 32.3125 
Q 14.796875 37.15625 21.921875 38.8125 
z
M 18.3125 54.390625 
Q 18.3125 48.734375 21.84375 45.5625 
Q 25.390625 42.390625 31.78125 42.390625 
Q 38.140625 42.390625 41.71875 45.5625 
Q 45.3125 48.734375 45.3125 54.390625 
Q 45.3125 60.0625 41.71875 63.234375 
Q 38.140625 66.40625 31.78125 66.40625 
Q 25.390625 66.40625 21.84375 63.234375 
Q 18.3125 60.0625 18.3125 54.390625 
z
" id="DejaVuSans-38"/>
     </defs>
     <g transform="translate(390.332854 51.340896)scale(0.08 -0.08)">
      <use xlink:href="#DejaVuSans-4f"/>
      <use x="78.710938" xlink:href="#DejaVuSans-72"/>
      <use x="119.808594" xlink:href="#DejaVuSans-64"/>
      <use x="183.285156" xlink:href="#DejaVuSans-65"/>
      <use x="244.808594" xlink:href="#DejaVuSans-72"/>
      <use x="285.921875" xlink:href="#DejaVuSans-20"/>
      <use x="317.708984" xlink:href="#DejaVuSans-38"/>
     </g>
    </g>
    <g id="line2d_36">
     <path d="M 367.932854 60.283396 
L 383.932854 60.283396 
" style="fill:none;stroke:#ac8e18;stroke-linecap:square;"/>
    </g>
    <g id="line2d_37"/>
    <g id="text_16">
     <!-- Exact -->
     <defs>
      <path d="M 9.8125 72.90625 
L 55.90625 72.90625 
L 55.90625 64.59375 
L 19.671875 64.59375 
L 19.671875 43.015625 
L 54.390625 43.015625 
L 54.390625 34.71875 
L 19.671875 34.71875 
L 19.671875 8.296875 
L 56.78125 8.296875 
L 56.78125 0 
L 9.8125 0 
z
" id="DejaVuSans-45"/>
      <path d="M 54.890625 54.6875 
L 35.109375 28.078125 
L 55.90625 0 
L 45.3125 0 
L 29.390625 21.484375 
L 13.484375 0 
L 2.875 0 
L 24.125 28.609375 
L 4.6875 54.6875 
L 15.28125 54.6875 
L 29.78125 35.203125 
L 44.28125 54.6875 
z
" id="DejaVuSans-78"/>
      <path d="M 34.28125 27.484375 
Q 23.390625 27.484375 19.1875 25 
Q 14.984375 22.515625 14.984375 16.5 
Q 14.984375 11.71875 18.140625 8.90625 
Q 21.296875 6.109375 26.703125 6.109375 
Q 34.1875 6.109375 38.703125 11.40625 
Q 43.21875 16.703125 43.21875 25.484375 
L 43.21875 27.484375 
z
M 52.203125 31.203125 
L 52.203125 0 
L 43.21875 0 
L 43.21875 8.296875 
Q 40.140625 3.328125 35.546875 0.953125 
Q 30.953125 -1.421875 24.3125 -1.421875 
Q 15.921875 -1.421875 10.953125 3.296875 
Q 6 8.015625 6 15.921875 
Q 6 25.140625 12.171875 29.828125 
Q 18.359375 34.515625 30.609375 34.515625 
L 43.21875 34.515625 
L 43.21875 35.40625 
Q 43.21875 41.609375 39.140625 45 
Q 35.0625 48.390625 27.6875 48.390625 
Q 23 48.390625 18.546875 47.265625 
Q 14.109375 46.140625 10.015625 43.890625 
L 10.015625 52.203125 
Q 14.9375 54.109375 19.578125 55.046875 
Q 24.21875 56 28.609375 56 
Q 40.484375 56 46.34375 49.84375 
Q 52.203125 43.703125 52.203125 31.203125 
z
" id="DejaVuSans-61"/>
      <path d="M 48.78125 52.59375 
L 48.78125 44.1875 
Q 44.96875 46.296875 41.140625 47.34375 
Q 37.3125 48.390625 33.40625 48.390625 
Q 24.65625 48.390625 19.8125 42.84375 
Q 14.984375 37.3125 14.984375 27.296875 
Q 14.984375 17.28125 19.8125 11.734375 
Q 24.65625 6.203125 33.40625 6.203125 
Q 37.3125 6.203125 41.140625 7.25 
Q 44.96875 8.296875 48.78125 10.40625 
L 48.78125 2.09375 
Q 45.015625 0.34375 40.984375 -0.53125 
Q 36.96875 -1.421875 32.421875 -1.421875 
Q 20.0625 -1.421875 12.78125 6.34375 
Q 5.515625 14.109375 5.515625 27.296875 
Q 5.515625 40.671875 12.859375 48.328125 
Q 20.21875 56 33.015625 56 
Q 37.15625 56 41.109375 55.140625 
Q 45.0625 54.296875 48.78125 52.59375 
z
" id="DejaVuSans-63"/>
      <path d="M 18.3125 70.21875 
L 18.3125 54.6875 
L 36.8125 54.6875 
L 36.8125 47.703125 
L 18.3125 47.703125 
L 18.3125 18.015625 
Q 18.3125 11.328125 20.140625 9.421875 
Q 21.96875 7.515625 27.59375 7.515625 
L 36.8125 7.515625 
L 36.8125 0 
L 27.59375 0 
Q 17.1875 0 13.234375 3.875 
Q 9.28125 7.765625 9.28125 18.015625 
L 9.28125 47.703125 
L 2.6875 47.703125 
L 2.6875 54.6875 
L 9.28125 54.6875 
L 9.28125 70.21875 
z
" id="DejaVuSans-74"/>
     </defs>
     <g transform="translate(390.332854 63.083396)scale(0.08 -0.08)">
      <use xlink:href="#DejaVuSans-45"/>
      <use x="63.183594" xlink:href="#DejaVuSans-78"/>
      <use x="122.363281" xlink:href="#DejaVuSans-61"/>
      <use x="183.642578" xlink:href="#DejaVuSans-63"/>
      <use x="238.623047" xlink:href="#DejaVuSans-74"/>
     </g>
    </g>
   </g>
  </g>
 </g>
 <defs>
  <clipPath id="p240e491731">
   <rect height="273.070709" width="405.415709" x="22.624646" y="2.834646"/>
  </clipPath>
 </defs>
</svg>
